<svg xmlns="http://www.w3.org/2000/svg" width="27" height="26.001" viewBox="3 3 27 26.001"><g data-name="グループ 139"><path d="m29.55 10.665-.993-.99a1.529 1.529 0 0 0-.784-.422 1.541 1.541 0 0 0-1.393.421l-.928.929 3.17 3.168.927-.927c.575-.576.6-1.494.075-2.099a1.564 1.564 0 0 0-.075-.08Z" fill="#ff963c" fill-rule="evenodd" data-name="パス 43"/><path d="M16.76 19.287v3.17h3.17l7.827-7.828-3.17-3.17-7.827 7.828Z" fill="#ff963c" fill-rule="evenodd" data-name="パス 44"/><path d="M9.347 9.934H18.3v1.492H9.347V9.934" fill="#ff963c" fill-rule="evenodd" data-name="長方形 12"/><path d="M9.347 15.398H18.3v1.492H9.347v-1.492" fill="#ff963c" fill-rule="evenodd" data-name="長方形 13"/><path d="M9.366 20.863h5.47v1.492h-5.47v-1.492" fill="#ff963c" fill-rule="evenodd" data-name="長方形 14"/><path d="M22.177 27.013H5.367a.414.414 0 0 1-.409-.414V5.403a.414.414 0 0 1 .409-.416h16.81a.413.413 0 0 1 .409.416v5.987l1.958-1.987v-4A2.385 2.385 0 0 0 22.177 3H5.367C4.059 3.001 3 4.076 3 5.403v21.196c.001 1.326 1.06 2.4 2.367 2.401h16.81a5.903 5.903 0 0 0 1.053-.078c.779-.145 1.313-.53 1.314-1.474v-7.5l-1.958 1.988v4.663a.413.413 0 0 1-.409.414Z" fill="#ff963c" fill-rule="evenodd" data-name="パス 45"/></g></svg>