<svg xmlns="http://www.w3.org/2000/svg" width="23" height="30" viewBox="4.5 1 23 30"><g data-name="グループ 25"><path d="m11.252 14.468-.812.555a6.956 6.956 0 0 0 1.94 1.9l.539-.823a5.987 5.987 0 0 1-1.667-1.632Z" fill="#ff963c" fill-rule="evenodd" data-name="パス 31"/><path d="m17.103 5.689.182-.966a6.959 6.959 0 0 0-1.275-.12 6.997 6.997 0 0 0-1.223.11 7.12 7.12 0 0 0-.201.038l-.019.005.203.961.016-.002c.412-.086.82-.127 1.224-.127a5.92 5.92 0 0 1 1.093.101Z" fill="#ff963c" fill-rule="evenodd" data-name="パス 32"/><path d="m12.818 6.467-.556-.81a6.966 6.966 0 0 0-1.898 1.941l.824.538a5.975 5.975 0 0 1 1.63-1.669Z" fill="#ff963c" fill-rule="evenodd" data-name="パス 33"/><path d="m10.376 10.145-.966-.181a6.87 6.87 0 0 0 .028 2.704l.003.012.963-.201-.003-.01a5.991 5.991 0 0 1-.127-1.226 5.97 5.97 0 0 1 .102-1.098Z" fill="#ff963c" fill-rule="evenodd" data-name="パス 34"/><path d="m14.887 16.914-.183.967c.42.079.85.12 1.287.12a7.03 7.03 0 0 0 1.424-.147l.006-.002-.2-.962h-.006a5.983 5.983 0 0 1-2.328.024Z" fill="#ff963c" fill-rule="evenodd" data-name="パス 35"/><path d="m22.562 9.837-.005-.024-.963.204.005.021a5.972 5.972 0 0 1 .022 2.333l.967.183c.08-.42.12-.853.12-1.292a6.94 6.94 0 0 0-.146-1.425Z" fill="#ff963c" fill-rule="evenodd" data-name="パス 36"/><path d="m19.173 16.041.555.812a6.967 6.967 0 0 0 1.901-1.94l-.822-.538a5.997 5.997 0 0 1-1.634 1.666Z" fill="#ff963c" fill-rule="evenodd" data-name="パス 37"/><path d="m20.742 8.025.811-.555a6.97 6.97 0 0 0-1.944-1.898l-.537.824a5.976 5.976 0 0 1 1.67 1.63Z" fill="#ff963c" fill-rule="evenodd" data-name="パス 38"/><path d="m19.373 10.14-2.331-.338L16 7.69l-1.042 2.112-2.33.338 1.686 1.644-.398 2.32L16 13.01l2.084 1.096-.398-2.32 1.687-1.645Z" fill="#ff963c" fill-rule="evenodd" data-name="パス 39"/><path d="M26.112 11.573a10.91 10.91 0 0 0-1.386-5.347 10.55 10.55 0 0 0-1.574-2.13 10.084 10.084 0 0 0-3.518-2.392A9.686 9.686 0 0 0 16 1a9.69 9.69 0 0 0-3.663.716 10.083 10.083 0 0 0-3.49 2.38 10.734 10.734 0 0 0-2.834 5.802 11.108 11.108 0 0 0-.126 1.675 10.898 10.898 0 0 0 1.386 5.344 10.555 10.555 0 0 0 1.575 2.13A9.872 9.872 0 0 0 16 22.143a9.873 9.873 0 0 0 7.15-3.098 10.732 10.732 0 0 0 2.84-5.832 11.1 11.1 0 0 0 .121-1.641Zm-10.111 8.604c-2.277 0-4.328-.96-5.822-2.52a8.729 8.729 0 0 1-2.323-4.826 9.082 9.082 0 0 1-.087-1.258 8.867 8.867 0 0 1 1.04-4.194 8.614 8.614 0 0 1 1.37-1.891A8.171 8.171 0 0 1 13.72 3.3a7.984 7.984 0 0 1 4.532-.007 8.153 8.153 0 0 1 3.57 2.194c1.49 1.558 2.41 3.705 2.41 6.085a8.86 8.86 0 0 1-1.04 4.191 8.654 8.654 0 0 1-1.37 1.893 8.023 8.023 0 0 1-5.82 2.52Z" fill="#ff963c" fill-rule="evenodd" data-name="パス 40"/><path d="m8.282 19.864-.001.003-.012-.01-3.664 7.847-.105.282.139.22a.525.525 0 0 0 .444.244h.085l3.502-1.09 1.385 3.315a.532.532 0 0 0 .488.325.526.526 0 0 0 .476-.306l2.834-6.068.837-1.783-.003-.002.006-.014a12.33 12.33 0 0 1-5.956-2.586 54.592 54.592 0 0 0-.053-.042l-.033-.027a10.119 10.119 0 0 1-.37-.308Z" fill="#ff963c" fill-rule="evenodd" data-name="パス 41"/><path d="m24.554 21.637-.823-1.769-.003.003-.006-.013a12.338 12.338 0 0 1-5.932 2.877c-.158.029-.314.06-.474.082v.003l-.013.004 3.673 7.87a.524.524 0 0 0 .477.306.532.532 0 0 0 .487-.325l1.385-3.314 3.435 1.065.08.024h.073a.526.526 0 0 0 .443-.244l.144-.267-2.946-6.302Z" fill="#ff963c" fill-rule="evenodd" data-name="パス 42"/></g></svg>