<svg xmlns="http://www.w3.org/2000/svg" width="669" height="253" viewBox="151 405 669 253"><g data-name="グループ 134"><path d="M245.069 473.283h56.194v46.23h21.4v-114.35h-21.4v48.19H245.07v-48.19h-21.563v114.35h21.563v-46.23Z" fill="#ff963c" fill-rule="evenodd" data-name="パス 82"/><path d="m416.36 508.405-12.742-12.579a18.516 18.516 0 0 1-4.432 3.265c-4.97 2.722-11.68 4.25-17.131 4.25a33.604 33.604 0 0 1-9.364-1.24c-8.501-2.466-13.665-8.4-14.65-15.913h62.892a84.887 84.887 0 0 0 .317-4.816c.945-25.925-11.26-40.686-31.165-44.19a56.703 56.703 0 0 0-9.827-.818 47.553 47.553 0 0 0-20.118 4.162c-14.26 6.611-22.682 20.564-22.682 37.984a47.547 47.547 0 0 0 4.617 21.287c4.933 9.931 13.68 16.966 25.562 20.003a56.86 56.86 0 0 0 14.091 1.674 56.178 56.178 0 0 0 8.725-.694c9.012-1.422 18.025-5.045 24.485-10.987a32.745 32.745 0 0 0 1.421-1.388Zm-14.54-38.716h-43.452a20.895 20.895 0 0 1 5.423-9.402c3.461-3.402 8.096-5.422 13.372-6.06a31.239 31.239 0 0 1 3.748-.22 28.95 28.95 0 0 1 9.119 1.346c6.513 2.166 10.867 6.944 11.79 14.336Z" fill="#ff963c" fill-rule="evenodd" data-name="パス 83"/><path d="m501.827 507.588.98 11.762h18.786v-80.535H502.48l-.653 11.108a25.064 25.064 0 0 0-11.34-9.946 34.05 34.05 0 0 0-14.307-3.123 56.407 56.407 0 0 0-.391-.001c-18.899 0-34.464 9.53-39.702 27.82a51.94 51.94 0 0 0-1.89 14.328 53.295 53.295 0 0 0 2.709 17.47c5.774 16.694 20.26 25.33 38.391 25.33a57.32 57.32 0 0 0 .393-.001 32.47 32.47 0 0 0 4.677-.441c7.54-1.247 16.069-5.124 20.384-11.85a18.246 18.246 0 0 0 1.076-1.921Zm-13.836-50.952a24.785 24.785 0 0 0-10.015-1.975 22.749 22.749 0 0 0-21.752 13.5 27.242 27.242 0 0 0-2.097 10.84 28.27 28.27 0 0 0 1.44 9.155 22.717 22.717 0 0 0 22.41 15.348 25.39 25.39 0 0 0 8.658-1.436c19.357-6.979 19.809-37.36 1.356-45.432Z" fill="#ff963c" fill-rule="evenodd" data-name="パス 84"/><path d="M538.281 405.163h19.766V519.35h-19.766V405.163" fill="#ff963c" fill-rule="evenodd" data-name="長方形 45"/><path d="M701.518 477.04v42.31h19.93v-42.473c0-20.082-7.28-34.292-23.432-38.153a41.108 41.108 0 0 0-9.566-1.053c-9.138 0-17.95 2.771-25.133 12.057a38.627 38.627 0 0 0-.024.032V405h-19.93v114.35h19.93v-41.166a23.962 23.962 0 0 1 4.234-13.888 18.91 18.91 0 0 1 15.695-8.166 19.156 19.156 0 0 1 10.364 2.682c4.306 2.723 7.174 7.605 7.802 15.034a37.93 37.93 0 0 1 .13 3.194Z" fill="#ff963c" fill-rule="evenodd" data-name="パス 85"/><path d="m632.15 516.899-5.554-16.989a24.532 24.532 0 0 1-5.468 1.949c-1.148.26-2.296.427-3.397.482a15.62 15.62 0 0 1-.773.02 11.417 11.417 0 0 1-5.396-1.22c-3.141-1.669-5.059-5.057-5.059-10.216V456.13h22.38v-17.152h-22.216v-19.64h-19.93v19.64h-15.029v17.152h15.029v34.795a40.52 40.52 0 0 0 1.543 11.588c3.674 12.312 13.664 18.33 27.371 17.817 5.316-.144 9.62-.92 14.47-2.66a60.372 60.372 0 0 0 2.03-.771Z" fill="#ff963c" fill-rule="evenodd" data-name="パス 86"/><path d="m798.206 436.853-22.576 52.77-22.479-52.77h-21.78l33.346 78.278-46.845 109.498-81.994-72.424-484.878.043v20.033l477.353.009 96.72 85.71L820 436.853h-21.794Z" fill="#ff963c" fill-rule="evenodd" data-name="パス 87"/></g></svg>